<?xml version="1.0" encoding="UTF-8"?>
<svg id="Layer_1" xmlns="http://www.w3.org/2000/svg" version="1.1" viewBox="0 0 1366 768">
  <!-- Generator: Adobe Illustrator 29.6.1, SVG Export Plug-In . SVG Version: 2.1.1 Build 9)  -->
  <path d="M563.266,557.626l226.988,32.614,98.782-20.754,5.254-145.486s53.594-.208,54.645,0,12.61,20.962,18.916,18.985c6.305-1.977,16.814,10.871,21.017-33.602,4.203-44.473-35.73-10.871-35.73-10.871l-59.9-5.139v-37.357l-36.78-9.883s30.475-18.777,30.475-34.59,1.051,21.742,9.458-32.614c8.407-54.356-38.882-99.817-38.882-99.817,0,0-37.831-14.824-53.594-11.859-15.763,2.965-71.459,13.836-67.256,15.813s-10.509,12.848-10.509,12.848c0,0-19.967-29.649-37.831-43.485s-111.392,2.965-107.189,9.883c4.203,6.918-23.119,14.824-29.424,46.45s-4.203,30.637,0,59.297c4.203,28.66-3.979,43.485-3.979,43.485l-10.733-20.754-127.155,21.742v184.81l153.427,60.286Z"/>
</svg>